PathFileType	4	(X/Y/Z)	Patient4_TMGait_0pt8_01_right_19.trc.trc
DataRate	CameraRate	NumFrames	NumMarkers	Units	OrigDataRate	OrigDataStartFrame	OrigNumFrames
89.171974522293	89.171974522293	4	33	mm	89.171974522293	71	       141
Frame#	Time	Sacral			L.Shoulder			Chest			R.Shoulder			Neck			R.ASIS			L.ASIS			R.Thigh.Superior			R.Thigh.Lateral			R.Thigh.Inferior			R.Patella			L.Thigh.Superior			L.Thigh.Lateral			L.Thigh.Inferior			L.Patella			L.Shank.Superior			L.Shank.Lateral			L.Shank.Inferior			R.Shank.Superior			R.Shank.Lateral			R.Shank.Inferior			R.Heel			R.Midfoot.Superior			R.Midfoot.Lateral			R.Toe			L.Heel			L.Midfoot.Lateral			L.Midfoot.Superior			L.Toe			L.Elbow			L.Wrist			R.Elbow			R.Wrist			
		X1	Y1	Z1	X2	Y2	Z2	X3	Y3	Z3	X4	Y4	Z4	X5	Y5	Z5	X6	Y6	Z6	X7	Y7	Z7	X8	Y8	Z8	X9	Y9	Z9	X10	Y10	Z10	X11	Y11	Z11	X12	Y12	Z12	X13	Y13	Z13	X14	Y14	Z14	X15	Y15	Z15	X16	Y16	Z16	X17	Y17	Z17	X18	Y18	Z18	X19	Y19	Z19	X20	Y20	Z20	X21	Y21	Z21	X22	Y22	Z22	X23	Y23	Z23	X24	Y24	Z24	X25	Y25	Z25	X26	Y26	Z26	X27	Y27	Z27	X28	Y28	Z28	X29	Y29	Z29	X30	Y30	Z30	X31	Y31	Z31	X32	Y32	Z32	X33	Y33	Z33	

71	21.915000000000	902.377351139138	992.868260718960	513.183273515545	1038.996279485911	1420.830333440507	312.654784512538	1168.350721518007	1351.449368945780	454.188832803770	1111.858957165766	1424.767408802921	639.633516799527	1054.223689606448	1479.400218913401	466.498566900195	1138.498853646361	928.594011700027	598.320906836270	1091.390714338811	943.748907392402	328.136087682569	1123.406001633722	710.522102449727	573.369892455723	1016.072819639337	621.196732556334	640.443348770841	1065.223031701258	553.642468456454	555.837728903773	1039.066288361177	468.567241552653	559.971755399352	1173.227982953967	764.893348815739	356.171999051721	1122.381775581135	630.570879280911	288.221537598724	1233.214375905914	579.122198496014	342.912145952992	1262.598482722947	517.433971744630	340.775160510063	1251.354757142073	444.426761807605	334.115036289466	1192.956421099136	306.900372470038	296.804134700793	1294.174161899999	219.299748767905	346.647589074065	994.732974762695	387.526740553213	569.062635980813	907.945481132185	298.339653612883	634.404822481050	926.367891588065	198.541182165917	567.669454939608	767.368940889023	46.170954838080	536.997366908999	939.545024852049	96.611567630079	574.087723199785	849.419252926604	37.916301172330	611.988208103861	1057.735929252301	40.863271202542	605.124473770667	1230.349731379427	40.233618921498	400.915997823187	1297.681603310402	43.530712103241	314.989441165265	1366.305305548543	123.746993642904	326.804442386851	1498.920847914291	97.139037941236	292.034573500245	874.647491303286	1113.092654300888	222.094434222416	794.606989459604	867.362561566793	224.097069414212	1236.395441011420	1152.306354685019	810.270200446498	1349.998027119544	1173.356968374188	587.269084218124	
72	21.926214285714	904.500711342164	991.181540378885	511.275599398456	1038.455451383285	1419.453081668870	310.695787506830	1168.883153456221	1350.648028396837	451.563845294612	1113.120150513389	1423.882092596994	637.297091979368	1054.231468727020	1478.050638968201	464.378877674047	1140.493627030010	926.415724340572	596.594240579270	1093.564381928637	942.422116740937	326.112665636551	1124.498385968979	708.514967132749	571.794397920546	1016.162704342345	619.917845707880	638.531319770520	1065.369266811992	551.669819293719	554.383375155331	1038.185738959031	466.026565597876	558.349789516066	1176.178851861627	763.586421389441	354.087722664781	1123.315729248166	628.583353376020	288.485942343184	1234.627037986441	577.409087999061	342.165905022088	1262.766275048145	514.590191422681	341.181098698760	1250.896922092542	441.166813561691	334.803721530629	1190.282796151259	304.406137066897	298.424795391484	1289.988726298716	215.568577440096	348.851929451074	992.194616864787	385.893989729307	567.675339970730	903.742489719981	298.581650801082	633.434164757885	919.955593741572	198.179901620384	567.154754201764	758.508198753358	47.691861779166	537.362661695911	931.082916621291	96.805551887285	574.182727278868	840.639736186080	38.521273601511	612.098562011533	1048.987415934330	40.243041246106	605.261717383739	1222.495507840094	39.096568976737	403.730306513741	1289.184376900239	41.411948560053	317.193093559063	1360.265753477260	118.967283863971	329.696691100028	1491.892139043645	88.482218476591	293.485517538291	871.880373879104	1113.316250225251	221.017466561515	791.081076234602	867.737643052130	222.759958409719	1238.567664525658	1155.220966273118	811.870796555930	1338.610241886019	1175.722099940326	582.909196702893	
73	21.937428571429	906.588073310873	989.653487260854	509.116718429826	1038.097867570135	1418.113272131875	308.582854702959	1169.518360528502	1349.908304441761	448.878424517246	1114.424652957268	1423.100074276891	634.872775688681	1054.344485453069	1476.824059574049	462.141839649604	1142.467653135766	924.355226140718	594.854077196790	1095.921428589896	941.236079412795	324.090900360254	1125.791817776405	706.672764443409	570.196943536986	1016.530036731977	618.693100949672	636.469932060073	1065.984115930242	549.781086282749	552.831746418657	1037.912886715058	463.378518167850	556.715217453573	1179.303145319825	762.431188816846	352.125361482101	1124.657607656777	627.038759313499	288.398616041775	1236.287503131979	575.984809775633	341.398345266526	1263.087001671359	511.981800538596	341.475435006679	1250.592202187741	438.169188688000	335.250281863293	1187.796841559639	302.291931040025	299.364907240741	1285.651285175874	212.056497458896	350.657834635705	990.071189913351	384.304642848489	566.243162308072	899.839322629332	299.031051376024	632.403623764633	913.773018305083	198.031775210274	566.668301732341	749.695181627664	49.721548383477	537.812284081975	922.798665261360	97.099444862039	574.385552569243	831.903336963531	39.367991422508	612.272445693478	1040.258906094721	39.685862766684	605.381496687100	1213.931127182998	38.269311183207	405.846271126274	1280.187627412566	39.579068223723	318.859011555555	1353.810192081458	114.359169882881	332.275568907032	1484.445820311529	79.808051935020	294.948783994854	869.911031109107	1113.081673275059	219.898960346486	788.724565925619	867.566212342810	221.232296075869	1240.031048667044	1157.544837953573	813.099062800483	1327.950681455639	1176.922605303621	579.352423845992	
74	21.948642857143	908.605002698389	988.368771821120	506.770844641447	1037.971663756869	1416.868030718193	306.319233229010	1170.271108847604	1349.265546810957	446.155437077410	1115.781319570824	1422.486356823088	632.367044785554	1054.592406038509	1475.784576709843	459.777509746885	1144.399907206951	922.506397104637	593.060707758250	1098.360700036310	940.272065697882	322.058241484834	1127.316390320039	705.066731755003	568.508110192940	1017.314049672116	617.533213289702	634.249754971634	1067.184757544587	548.024942239418	551.126917434637	1038.418979193544	460.642590088220	555.080983945768	1182.463873372738	761.505804790974	350.311299963745	1126.381796093583	626.032882360933	287.879500942559	1238.125489354296	574.928685849326	340.577665767747	1263.547694291133	509.762262636887	341.570205336856	1250.451804697747	435.581341799537	335.402858562177	1185.614360225480	300.669220020045	299.547399175346	1281.307256275566	208.951893526744	351.999658404555	988.490100914299	382.775117511545	564.785054470635	896.359303628717	299.751622456902	631.330005706062	907.927503822491	198.155209837380	566.229254160853	740.991309243568	52.402169885259	538.344262040075	914.758927083207	97.486451365889	574.691409578960	823.240095745868	40.531655553838	612.508319132488	1031.541932185844	39.206256734005	605.470608704520	1205.021382482456	37.769048450237	407.270840561668	1271.043384928950	38.115076187848	319.987205554457	1347.103531195065	110.203040729914	334.428510039362	1476.793018184465	71.716022729703	296.329611435975	868.804606612139	1112.416529122174	218.692570433000	787.589328894304	866.873692402854	219.520118287429	1240.538363626985	1159.238932799240	813.985300608671	1318.284075018975	1177.141708876640	576.589609701428	
